<svg xmlns="http://www.w3.org/2000/svg" xmlns:xlink="http://www.w3.org/1999/xlink" fill="none" version="1.1" width="16" height="16" viewBox="0 0 16 16"><path d="M8.025004148483276,1.9500325918197632C4.711292548483277,1.9500325918197632,2.0250041484832764,4.636320991819764,2.0250041484832764,7.950032591819763C2.0250041484832764,11.263713191819763,4.711292548483277,13.950032591819763,8.025004148483276,13.950032591819763C11.338684748483276,13.950032591819763,14.025004148483276,11.263713191819763,14.025004148483276,7.950032591819763C14.025004148483276,4.636320991819764,11.338684748483276,1.9500325918197632,8.025004148483276,1.9500325918197632ZM9.865452548483276,3.3010886918197633Q10.828285948483277,3.6822688918197635,11.560524748483276,4.414496791819763C12.048685148483276,4.902656691819763,12.419804148483276,5.467672691819763,12.673965148483276,6.109560891819763C12.907988148483277,6.7007373918197635,13.025004148483276,7.314232691819763,13.025004148483276,7.950032591819763C13.025004148483276,8.585833391819763,12.907988148483277,9.199313091819764,12.673965148483276,9.790480991819763C12.419829148483277,10.432369591819763,12.048685148483276,10.997393991819763,11.560524748483276,11.485553191819763C11.072365548483276,11.973713591819763,10.507324948483276,12.344832591819763,9.865452548483276,12.598993591819763C9.274284648483277,12.833016591819764,8.660804948483277,12.950032591819763,8.025004148483276,12.950032591819763C7.389204248483276,12.950032591819763,6.775708448483276,12.833016591819764,6.184532448483276,12.598993591819763C5.542644248483276,12.344857591819764,4.977620348483276,11.973713591819763,4.4894683484832765,11.485553191819763Q3.7572400484832764,10.753312491819763,3.3760602484832765,9.790480991819763C3.142020248483276,9.199321191819763,3.0250041484832764,8.585833391819763,3.0250041484832764,7.950032591819763C3.0250041484832764,7.314232691819763,3.142020248483276,6.7007449918197635,3.3760602484832765,6.109560891819763C3.6301801484832765,5.467672691819763,4.001316348483276,4.902648791819763,4.4894683484832765,4.414496791819763C4.977620348483276,3.926344791819763,5.542644248483276,3.5552085918197633,6.184532448483276,3.3010886918197633C6.775708948483277,3.067048691819763,7.389204248483276,2.950032591819763,8.025004148483276,2.950032591819763C8.660804948483277,2.950032591819763,9.274284648483277,3.067048691819763,9.865452548483276,3.3010886918197633ZM7.671499048483277,9.683932191819764Q7.813730948483276,9.826164591819763,8.014875148483277,9.826164591819763Q8.216021348483277,9.826164591819763,8.358253248483276,9.683930791819762Q8.500482348483278,9.541699791819763,8.500482348483278,9.340557891819763L8.500482348483278,8.677006091819763Q8.500482348483278,8.586329291819762,8.527430248483277,8.500260691819763Q8.553844648483278,8.415894891819764,8.603914048483276,8.342739491819763Q8.653973348483277,8.269594991819762,8.723067048483276,8.214432591819763Q8.793537848483275,8.158150091819763,8.878051948483275,8.125326491819763Q9.139425948483275,8.023812691819764,9.358042448483276,7.849240691819763Q9.572006448483275,7.678362291819763,9.726812148483276,7.452158791819763Q9.881661148483277,7.225936291819763,9.963482648483277,6.9646137918197635Q10.047068348483277,6.6976192918197635,10.047068348483277,6.417231891819763L10.047068348483277,6.341097191819763Q10.047068348483277,5.945983291819763,9.894119548483276,5.584395491819763Q9.746555548483276,5.235514491819764,9.477789648483277,4.966733091819763Q9.209005148483277,4.697966691819763,8.860131948483277,4.550401091819763Q8.498542548483275,4.397461091819763,8.103432448483275,4.397461091819763L8.000005448483275,4.397461091819763Q7.583855348483277,4.397461091819763,7.203047548483276,4.558528591819764Q6.835598248483277,4.713944791819763,6.552514348483276,4.997031591819763Q6.2694261484832765,5.280116391819764,6.1140100484832764,5.647566191819763Q5.9529421484832765,6.0283730918197636,5.9529421484832765,6.444524191819763L5.9529421484832765,6.553080891819763Q5.9529421484832765,6.754225591819763,6.095173148483276,6.896457091819763Q6.237404548483276,7.038688091819763,6.438549248483277,7.038688091819763Q6.639693948483276,7.038688091819763,6.781924948483276,6.896457091819763Q6.924156448483276,6.754225591819763,6.924156448483276,6.553080891819763L6.924156448483276,6.444524191819763Q6.924156448483276,6.225322091819764,7.008503248483277,6.025903591819763Q7.090127748483276,5.832922091819763,7.239263248483276,5.6837843918197635Q7.388403648483276,5.534646891819763,7.581384448483276,5.453022091819763Q7.7808039484832765,5.368675391819764,8.000005448483275,5.368675391819764L8.103432448483275,5.368675391819764Q8.301592548483276,5.368675391819764,8.481796048483275,5.444895191819763Q8.656220148483277,5.518668091819763,8.791048748483277,5.6534889918197635Q8.925863548483276,5.788307291819763,8.999631648483277,5.962739391819763Q9.075854048483276,6.142936591819764,9.075854048483276,6.341097191819763L9.075854048483276,6.417231891819763Q9.075854048483276,6.549136491819763,9.036638948483276,6.674406391819764Q8.998183048483277,6.797189091819763,8.925344748483276,6.903615391819764Q8.852507348483275,7.0100391918197635,8.752001048483276,7.090309491819763Q8.649401448483276,7.172234391819763,8.526436048483276,7.219987291819764Q8.303501348483277,7.306579991819763,8.117017948483277,7.455513791819763Q7.934492848483276,7.6012509918197635,7.802431348483276,7.794220291819763Q7.670374648483277,7.987180091819763,7.600582348483276,8.210081891819764Q7.529268048483276,8.437855591819762,7.529268048483276,8.677005191819763L7.529268548483277,9.340556491819763Q7.529268048483276,9.541699791819763,7.671499048483277,9.683932191819764ZM8.477771948483277,10.291472791819762Q8.296466548483277,10.110208891819763,8.040047448483277,10.110208891819763Q7.783629148483277,10.110208891819763,7.602319448483277,10.291470891819763Q7.420980248483277,10.472761491819764,7.420980248483277,10.729194091819764Q7.420980248483277,10.985616991819763,7.602298948483276,11.166942991819763Q7.783620548483277,11.348272691819764,8.040047448483277,11.348272691819764Q8.296474648483276,11.348272691819764,8.477792948483277,11.166941091819764Q8.659103148483275,10.985616991819763,8.659103148483275,10.729194091819764Q8.659103148483275,10.472762491819763,8.477771948483277,10.291472791819762Z" fill-rule="evenodd" fill="#989796" fill-opacity="1"/></svg>